<svg width="20" height="20" viewBox="0 0 20 20" fill="none" xmlns="http://www.w3.org/2000/svg">
<mask id="mask0_518_1265" style="mask-type:alpha" maskUnits="userSpaceOnUse" x="0" y="0" width="20" height="20">
<path d="M10.0002 0.833252C15.0623 0.833252 19.1657 4.93667 19.1657 9.9988C19.1657 15.0609 15.0623 19.1643 10.0002 19.1643C8.51737 19.1663 7.05644 18.8071 5.74367 18.1176L1.81165 19.1414C1.68027 19.1757 1.54222 19.1749 1.4112 19.1394C1.28017 19.1038 1.16072 19.0346 1.06467 18.9387C0.968625 18.8427 0.89932 18.7233 0.863627 18.5923C0.827934 18.4613 0.827092 18.3233 0.861183 18.1919L1.88406 14.2608C1.19279 12.9466 0.83256 11.4837 0.834603 9.9988C0.834603 4.93667 4.93802 0.833252 10.0002 0.833252Z" fill="#F8F9FE"/>
</mask>
<g mask="url(#mask0_518_1265)">
<rect width="20" height="20" fill="#006FFD"/>
</g>
</svg>
